# xmcd
#
# Track frame offsets:
#	150
#	4868
#	15293
#	21098
#	33785
#	44520
#	56908
#	69015
#	75608
#	81598
#	87895
#	96785
#	100760
#	109333
#	115443
#	120980
#	127493
#	136438
#	143810
#
# Disc length: 1978 seconds
#
# Revision: 1
# Processed by: cddbd v1.5PL3 Copyright (c) Steve Scherf et al.
# Submitted via: CDex 1.50Beta5
#
DISCID=fb07b813
DTITLE=Jon - JON
DYEAR=1900
DGENRE=
TTITLE0=お水あるよ
TTITLE1=ちっちゃいヤギから大きいヤギまで
TTITLE2=ジョンがおフトンしくこともある
TTITLE3=バクじいのおひっこし
TTITLE4=おチョナン、ナーいってたよ
TTITLE5=パーカパーカ
TTITLE6=ジョンのすきなウシウシ
TTITLE7=ゴハン
TTITLE8=イゴイゴ
TTITLE9=あ?ジョンいっぱいくった
TTITLE10=ホウソミルレェ
TTITLE11=あくびナーン
TTITLE12=ドタ犬ってなーに、ドラねこってなーに
TTITLE13=ポキュ
TTITLE14=お水のなかから?
TTITLE15=オイゴレ・・・
TTITLE16=おねり
TTITLE17=おさけのみました
TTITLE18=ヤマハ・オルガン
EXTD=
EXTT0=
EXTT1=
EXTT2=
EXTT3=
EXTT4=
EXTT5=
EXTT6=
EXTT7=
EXTT8=
EXTT9=
EXTT10=
EXTT11=
EXTT12=
EXTT13=
EXTT14=
EXTT15=
EXTT16=
EXTT17=
EXTT18=
PLAYORDER=
